***************************************************************

[IMG]http://www.torrentforce.org/imghost/3/greyshadow_tfbanner.png[/IMG]

***************************************************************

[IMG]http://www.torrentforce.org/imghost/4/greyshadow_alittlebitofheaven.jpg[/IMG]

***************************************************************

FILM TITLE: TITLE: A Little Bit of Heaven (2011)

***************************************************************

Genre: Comedy | Drama | Romance   

Rated PG-13 for sexual content, including crude references, and language

Release: 4 February 2011 (UK)

Director: Nicole Kassell

Writer: Gren Wells

Stars: Kate Hudson, Peter Dinklage and Lucy Punch 

Country: USA

Language: English

Plot:
It's a comedy about a guarded woman who finds out she's dying of cancer, 
but when she meets her match, the threat of falling in love is scarier 
than death.

IMDB Rating: 6.0/10 from 1,528 users
 
http://www.imdb.com/title/tt1440161/ 

****************************************************************

[IMG]http://www.torrentforce.org/imghost/4/greyshadow_alittlebitofheavenx2641.png[/IMG]
[IMG]http://www.torrentforce.org/imghost/4/greyshadow_alittlebitofheavenx2642.png[/IMG]
[IMG]http://www.torrentforce.org/imghost/4/greyshadow_alittlebitofheavenx2643.png[/IMG]
[IMG]http://www.torrentforce.org/imghost/4/greyshadow_alittlebitofheavenx2644.png[/IMG]

****************************************************************

[IMG]http://www.torrentforce.org/imghost/2/greyshadow_mediainfo.png[/IMG]
General
Complete name                    : A Little Bit Of Heaven 2011 720p BDRip x264 aac (mp4) [TFRG].mp4
Format                           : MPEG-4
Format profile                   : Base Media
Codec ID                         : isom
File size                        : 2.72 GiB
Duration                         : 1h 46mn
Overall bit rate                 : 3652 Kbps
Encoded date                     : UTC 2011-10-16 13:51:07
Tagged date                      : UTC 2011-10-16 13:51:07

Video
ID                               : 1
Format                           : AVC
Format/Info                      : Advanced Video Codec
Format profile                   : High@L4.1
Format settings, CABAC           : Yes
Format settings, ReFrames        : 12 frames
Codec ID                         : avc1
Codec ID/Info                    : Advanced Video Coding
Duration                         : 1h 46mn
Bit rate                         : 3200 Kbps
Maximum bit rate                 : 18.0 Mbps
Width                            : 1280 pixels
Height                           : 544 pixels
Display aspect ratio             : 2.35:1
Frame rate mode                  : Constant
Frame rate                       : 24.000 fps
Color space                      : YUV
Chroma subsampling               : 4:2:0
Bit depth                        : 8 bits
Scan type                        : Progressive
Bits/(Pixel*Frame)               : 0.191
Stream size                      : 2.38 GiB (88%)
Title                            : A Little Bit Of Heaven AVC MPEG4 Video
Writing library                  : x264 core 118 r2085 8a62835
Encoded date                     : UTC 2011-10-15 07:35:50
Tagged date                      : UTC 2011-10-16 13:52:56
Color primaries                  : BT.709-5, BT.1361, IEC 61966-2-4, SMPTE RP177
Transfer characteristics         : BT.709-5, BT.1361
Matrix coefficients              : BT.709-5, BT.1361, IEC 61966-2-4 709, SMPTE RP177

Audio
ID                               : 2
Format                           : AAC
Format/Info                      : Advanced Audio Codec
Format profile                   : LC
Codec ID                         : 40
Duration                         : 1h 46mn
Bit rate mode                    : Variable
Bit rate                         : 449 Kbps
Maximum bit rate                 : 467 Kbps
Channel(s)                       : 6 channels
Channel positions                : Front: L C R, Side: L R, LFE
Sampling rate                    : 48.0 KHz
Compression mode                 : Lossy
Stream size                      : 342 MiB (12%)
Title                            : A Little Bit Of Heaven AAC 5.1 Audio
Language                         : English
Encoded date                     : UTC 2011-10-16 13:52:44
Tagged date                      : UTC 2011-10-16 13:52:56

****************************************************************

Video Source: A Little Bit Of Heaven 2011 BluRay 1080p AVC DTS-HD MA5.1-CHDBits (20.5GB) 

Thanks: (chdbits.org)

****************************************************************

I provide a small sample, so please download this to check your 
compatibility first if you are unsure.

****************************************************************

7th October 2011

I am re-introducing my warning to all downloaders, please please
please use a proxy or vpn service, it is the only secure way to
keep your own ip address from being seen during downloading or
uploading/seeding, this WILL stop isp letters, as for advice to 
which one then thats simple, vpntunnel.se server based in Sweden 
is the right one to use, I have cancelled my vpn and transfered 
to a Swedish one already !!! enough said. 

****************************************************************

A big thanks to all the sites out there who care and share and
who make it possible for you to download this torrent for free.

Greetz to Westy, Ripwyn, mustang, noir, Blackjesus, MXMG, The Stig 
and all the other outstanding members of our community of file 
sharers and a special mention to our friends at 1337x.

****************************************************************